{
	"asset":{
		"generator":"Khronos glTF Blender I/O v5.1.20",
		"version":"2.0"
	},
	"scene":0,
	"scenes":[
		{
			"name":"Scene",
			"nodes":[
				0
			]
		}
	],
	"nodes":[
		{
			"mesh":0,
			"name":"Curve",
			"rotation":[
				0.7071068286895752,
				0,
				0,
				0.7071068286895752
			]
		}
	],
	"materials":[
		{
			"doubleSided":true,
			"name":"White",
			"pbrMetallicRoughness":{
				"metallicFactor":0,
				"roughnessFactor":0.5
			}
		},
		{
			"doubleSided":true,
			"name":"Material.001",
			"pbrMetallicRoughness":{
				"baseColorFactor":[
					0.9646864533424377,
					0.5209956169128418,
					0,
					1
				],
				"metallicFactor":0
			}
		}
	],
	"meshes":[
		{
			"name":"Curve",
			"primitives":[
				{
					"attributes":{
						"POSITION":0,
						"NORMAL":1,
						"TEXCOORD_0":2
					},
					"indices":3,
					"material":0
				},
				{
					"attributes":{
						"POSITION":4,
						"NORMAL":5,
						"TEXCOORD_0":6
					},
					"indices":7,
					"material":1
				}
			]
		}
	],
	"accessors":[
		{
			"bufferView":0,
			"componentType":5126,
			"count":496,
			"max":[
				0.04590601101517677,
				0.004727538675069809,
				0.042937733232975006
			],
			"min":[
				-0.04537190496921539,
				-0.004709729924798012,
				-0.021806690841913223
			],
			"type":"VEC3"
		},
		{
			"bufferView":1,
			"componentType":5126,
			"count":496,
			"type":"VEC3"
		},
		{
			"bufferView":2,
			"componentType":5126,
			"count":496,
			"type":"VEC2"
		},
		{
			"bufferView":3,
			"componentType":5123,
			"count":1440,
			"type":"SCALAR"
		},
		{
			"bufferView":4,
			"componentType":5126,
			"count":48,
			"max":[
				-0.028430022299289703,
				0.004727538675069809,
				-0.006319877225905657
			],
			"min":[
				-0.04501938074827194,
				-0.004709729924798012,
				-0.022369617596268654
			],
			"type":"VEC3"
		},
		{
			"bufferView":5,
			"componentType":5126,
			"count":48,
			"type":"VEC3"
		},
		{
			"bufferView":6,
			"componentType":5126,
			"count":48,
			"type":"VEC2"
		},
		{
			"bufferView":7,
			"componentType":5123,
			"count":120,
			"type":"SCALAR"
		}
	],
	"bufferViews":[
		{
			"buffer":0,
			"byteLength":5952,
			"byteOffset":0,
			"target":34962
		},
		{
			"buffer":0,
			"byteLength":5952,
			"byteOffset":5952,
			"target":34962
		},
		{
			"buffer":0,
			"byteLength":3968,
			"byteOffset":11904,
			"target":34962
		},
		{
			"buffer":0,
			"byteLength":2880,
			"byteOffset":15872,
			"target":34963
		},
		{
			"buffer":0,
			"byteLength":576,
			"byteOffset":18752,
			"target":34962
		},
		{
			"buffer":0,
			"byteLength":576,
			"byteOffset":19328,
			"target":34962
		},
		{
			"buffer":0,
			"byteLength":384,
			"byteOffset":19904,
			"target":34962
		},
		{
			"buffer":0,
			"byteLength":240,
			"byteOffset":20288,
			"target":34963
		}
	],
	"buffers":[
		{
			"byteLength":20528,
			"uri":"M-3D.bin"
		}
	]
}
